<svg width="99" height="27" viewBox="0 0 99 27" fill="none" xmlns="http://www.w3.org/2000/svg">
<path d="M15.8047 21.0195H7.07227L5.41211 26H0.116211L9.11426 1.82812H13.7295L22.7773 26H17.4814L15.8047 21.0195ZM8.41699 16.9854H14.46L11.4219 7.9375L8.41699 16.9854ZM23.9727 16.8857C23.9727 14.0856 24.598 11.8555 25.8486 10.1953C27.1104 8.53516 28.8314 7.70508 31.0117 7.70508C32.7604 7.70508 34.2048 8.35807 35.3447 9.66406V0.5H40.1592V26H35.8262L35.5938 24.0908C34.3984 25.585 32.86 26.332 30.9785 26.332C28.8646 26.332 27.1657 25.502 25.8818 23.8418C24.609 22.1706 23.9727 19.8519 23.9727 16.8857ZM28.7705 17.2344C28.7705 18.9167 29.0638 20.2061 29.6504 21.1025C30.237 21.999 31.0892 22.4473 32.207 22.4473C33.6901 22.4473 34.736 21.8219 35.3447 20.5713V13.4824C34.7471 12.2318 33.7122 11.6064 32.2402 11.6064C29.9271 11.6064 28.7705 13.4824 28.7705 17.2344ZM43.1309 16.8525C43.1309 15.0706 43.474 13.4824 44.1602 12.0879C44.8464 10.6934 45.8314 9.61426 47.1152 8.85059C48.4102 8.08691 49.9098 7.70508 51.6143 7.70508C54.0381 7.70508 56.0137 8.44661 57.541 9.92969C59.0794 11.4128 59.9372 13.4271 60.1143 15.9727L60.1475 17.2012C60.1475 19.957 59.3783 22.1706 57.8398 23.8418C56.3014 25.502 54.2373 26.332 51.6475 26.332C49.0576 26.332 46.988 25.502 45.4385 23.8418C43.9001 22.1816 43.1309 19.9238 43.1309 17.0684V16.8525ZM47.9287 17.2012C47.9287 18.9056 48.2497 20.2116 48.8916 21.1191C49.5335 22.0156 50.4521 22.4639 51.6475 22.4639C52.8096 22.4639 53.7171 22.0212 54.3701 21.1357C55.0231 20.2393 55.3496 18.8115 55.3496 16.8525C55.3496 15.1813 55.0231 13.8864 54.3701 12.9678C53.7171 12.0492 52.7985 11.5898 51.6143 11.5898C50.4411 11.5898 49.5335 12.0492 48.8916 12.9678C48.2497 13.8753 47.9287 15.2865 47.9287 17.2012ZM68.8467 3.62109V8.03711H71.918V11.5566H68.8467V20.5215C68.8467 21.1855 68.974 21.6615 69.2285 21.9492C69.4831 22.237 69.9701 22.3809 70.6895 22.3809C71.2207 22.3809 71.6911 22.3421 72.1006 22.2646V25.9004C71.1598 26.1882 70.1914 26.332 69.1953 26.332C65.8307 26.332 64.1152 24.6331 64.0488 21.2354V11.5566H61.4258V8.03711H64.0488V3.62109H68.8467ZM82.8584 26.332C80.2243 26.332 78.0771 25.5241 76.417 23.9082C74.7679 22.2923 73.9434 20.1396 73.9434 17.4502V16.9854C73.9434 15.1813 74.292 13.571 74.9893 12.1543C75.6865 10.7266 76.6715 9.63086 77.9443 8.86719C79.2282 8.09245 80.6891 7.70508 82.3271 7.70508C84.7842 7.70508 86.7155 8.47982 88.1211 10.0293C89.5378 11.5788 90.2461 13.7757 90.2461 16.6201V18.5791H78.8076C78.9626 19.7523 79.4274 20.693 80.2021 21.4014C80.988 22.1097 81.9785 22.4639 83.1738 22.4639C85.0221 22.4639 86.4665 21.7943 87.5068 20.4551L89.8643 23.0947C89.1449 24.113 88.1709 24.9098 86.9424 25.4854C85.7139 26.0498 84.3525 26.332 82.8584 26.332ZM82.3105 11.5898C81.3587 11.5898 80.584 11.9108 79.9863 12.5527C79.3997 13.1947 79.0234 14.1133 78.8574 15.3086H85.5312V14.9268C85.5091 13.8643 85.2214 13.0452 84.668 12.4697C84.1146 11.8831 83.3288 11.5898 82.3105 11.5898Z" fill="#464444"/>
<path d="M93.2344 23.6426C93.2344 22.8789 93.4889 22.2591 93.998 21.7832C94.5182 21.3073 95.1657 21.0693 95.9404 21.0693C96.7262 21.0693 97.3737 21.3073 97.8828 21.7832C98.403 22.2591 98.6631 22.8789 98.6631 23.6426C98.6631 24.3952 98.4085 25.0094 97.8994 25.4854C97.3903 25.9502 96.7373 26.1826 95.9404 26.1826C95.1546 26.1826 94.5072 25.9502 93.998 25.4854C93.4889 25.0094 93.2344 24.3952 93.2344 23.6426Z" fill="#BAD9FE"/>
</svg>
